<svg width="197" height="164" viewBox="0 0 197 164" fill="none" xmlns="http://www.w3.org/2000/svg">
<path d="M146.331 96.1165C145.798 95.4238 145.586 94.5725 145.798 93.7728L152.083 66.029C152.509 64.1122 154.159 62.7812 156.13 62.7812C158.1 62.7812 159.751 64.1122 160.176 66.029L164.49 84.8796H165.874L170.188 66.029C170.613 64.1122 172.265 62.7812 174.236 62.7812C176.152 62.7812 177.856 64.1122 178.281 66.029L184.566 93.7728C184.779 94.5725 184.566 95.4238 184.033 96.1165C183.501 96.8087 182.703 97.1824 181.85 97.1824C180.519 97.1824 179.4 96.2759 179.135 94.9986L174.927 76.5728H173.542L169.655 93.6137C169.176 95.6904 167.312 97.1824 165.182 97.1824C163.052 97.1824 161.188 95.6904 160.709 93.6137L156.822 76.5728H155.437L151.231 94.9986C150.964 96.2759 149.845 97.1824 148.515 97.1824C147.663 97.1824 146.863 96.7552 146.331 96.1165Z" fill="#664996"/>
<path d="M148.515 98.6196C150.485 98.6196 152.189 97.2347 152.668 95.3179L156.13 79.9812L159.324 93.9339C159.91 96.7028 162.36 98.6196 165.182 98.6196C168.005 98.6196 170.401 96.7028 171.041 93.9339L174.236 79.9812L177.696 95.3179C178.177 97.2347 179.88 98.6196 181.85 98.6196C183.128 98.6196 184.353 98.0337 185.151 97.0221C186.004 96.011 186.27 94.6792 186.004 93.4002L179.667 65.7104C179.081 63.1533 176.844 61.3428 174.236 61.3428C171.573 61.3428 169.336 63.1533 168.75 65.7104L165.182 81.4724L161.614 65.7104C161.028 63.1533 158.792 61.3428 156.13 61.3428C153.52 61.3428 151.284 63.1533 150.698 65.7104L144.361 93.4002C144.094 94.6792 144.361 96.011 145.159 97.0221C146.011 98.0337 147.182 98.6196 148.515 98.6196Z" fill="#3E396F"/>
<path d="M109.533 83.0703L105.007 98.6201H138.929L134.349 83.0703H109.533Z" fill="#3E396F"/>
<path d="M111.238 77.265H132.698L128.066 61.3428H115.871L111.238 77.265Z" fill="#3E396F"/>
<path d="M73.9612 98.62H99.6822V87.4902H73.9612V98.62Z" fill="#E7AE0D"/>
<path d="M73.9612 85.5735H99.6822V74.3906H73.9612V85.5735Z" fill="#E7AE0D"/>
<path d="M73.9612 72.4725H99.6822V61.3428H73.9612V72.4725Z" fill="#E7AE0D"/>
<path d="M64.0564 79.0773H67.8377V61.3438H64.0564V79.0773Z" fill="#3E396F"/>
<path d="M62.5123 79.8745V61.3428H58.731V79.9812H58.7845L64.802 98.6196H68.6361L62.5123 79.8745Z" fill="#3E396F"/>
<path d="M53.4065 79.9812H53.4596L59.4767 98.6196H63.3116L57.187 79.8745V61.3428H53.4065V79.9812Z" fill="#3E396F"/>
<path d="M48.0811 98.6196H51.862V61.3428H48.0811V98.6196Z" fill="#3E396F"/>
<path d="M42.7559 98.6196H46.5364V61.3428H42.7559V98.6196Z" fill="#3E396F"/>
<path d="M37.4306 80.0879H29.3896C29.3896 85.8928 24.703 90.579 18.8989 90.579V98.6204C29.1234 98.6204 37.4306 90.3128 37.4306 80.0879Z" fill="#3E396F"/>
<path d="M18.8989 61.3428V69.3838C24.703 69.3838 29.3896 74.0696 29.3896 79.8745H37.4306C37.4306 69.65 29.1234 61.3428 18.8989 61.3428Z" fill="#3E396F"/>
<path d="M10.6975 98.6196H18.3125V61.3428H10.6975V98.6196Z" fill="#3E396F"/>
<path d="M167.031 41.2279C168.575 41.2279 169.795 40.0086 169.795 38.4635C169.795 36.9587 168.575 35.6982 167.031 35.6982C165.526 35.6982 164.265 36.9587 164.265 38.4635C164.265 40.0086 165.526 41.2279 167.031 41.2279Z" fill="#3E396F"/>
<path d="M170.974 52.8967H179.797V24.4355H170.974V52.8967Z" fill="#EA5949"/>
<path d="M154.263 52.8967H163.087V24.4355H154.263V52.8967Z" fill="#EA5949"/>
<path d="M150.198 43.3826C150.238 40.8209 149.222 38.3812 147.433 36.5517C146.295 35.4128 144.953 34.6003 143.489 34.1524C145.929 33.9089 147.798 31.8346 147.798 29.3137C147.798 26.6305 145.644 24.4355 142.96 24.4355H128.12C122.875 24.4355 118.524 28.8259 118.606 34.072C118.646 38.3812 121.656 42.0406 125.68 43.1383H124.095C121.411 43.1383 119.215 45.3344 119.215 48.0177C119.215 50.7005 121.411 52.8967 124.095 52.8967H140.521C145.847 52.8967 150.198 48.6275 150.198 43.3826ZM142.96 31.5099H128.16C126.86 31.5099 125.762 32.5269 125.68 33.8273C125.68 35.2097 126.697 36.3894 128.12 36.3894H140.642C144.465 36.3894 147.554 39.5201 147.554 43.3414C147.514 47.1227 144.383 50.2126 140.521 50.2126H124.095C122.915 50.2126 121.899 49.2369 121.899 48.0177C121.899 46.7968 122.915 45.8223 124.095 45.8223H140.602C141.944 45.8223 143.042 44.765 143.123 43.423C143.163 42.7724 142.92 42.0809 142.431 41.5931C141.984 41.1052 141.293 40.8209 140.642 40.8209H128.242C124.42 40.8209 121.33 37.7718 121.29 34.0308C121.25 32.2009 121.981 30.4526 123.281 29.1518C124.583 27.8102 126.291 27.1192 128.12 27.1192H142.96C144.139 27.1192 145.156 28.0949 145.156 29.3137C145.156 30.5342 144.139 31.5099 142.96 31.5099Z" fill="#EA5949"/>
<path d="M111.573 52.897C113.198 52.897 114.54 51.555 114.54 49.8875C114.54 48.2615 113.198 46.9199 111.573 46.9199C109.905 46.9199 108.563 48.2615 108.563 49.8875C108.563 51.555 109.905 52.897 111.573 52.897Z" fill="#3E396F"/>
<path d="M111.573 39.3975C109.905 39.3975 108.563 40.7395 108.563 42.4062C108.563 44.0729 109.905 45.415 111.573 45.415C113.198 45.415 114.54 44.0729 114.54 42.4062C114.54 40.7395 113.198 39.3975 111.573 39.3975Z" fill="#3E396F"/>
<path d="M111.573 31.917C109.905 31.917 108.563 33.259 108.563 34.9257C108.563 36.5925 109.905 37.9353 111.573 37.9353C113.198 37.9353 114.54 36.5925 114.54 34.9257C114.54 33.259 113.198 31.917 111.573 31.917Z" fill="#3E396F"/>
<path d="M111.573 30.4123C113.198 30.4123 114.54 29.0706 114.54 27.4439C114.54 25.7772 113.198 24.4355 111.573 24.4355C109.905 24.4355 108.563 25.7772 108.563 27.4439C108.563 29.0706 109.905 30.4123 111.573 30.4123Z" fill="#3E396F"/>
<path d="M104.497 38.7881L95.2676 52.8969H104.497V38.7881Z" fill="#EA5949"/>
<path d="M85.8352 52.8967H95.0646V24.4355H85.8352V52.8967Z" fill="#EA5949"/>
<path d="M67.5391 52.8973H77.0124V48.1406H67.5391V52.8973Z" fill="#EA5949"/>
<path d="M81.769 38.6455H72.2549V43.4026H77.0123V48.1398H81.769V38.6455Z" fill="#EA5949"/>
<path d="M77.0125 33.8895H81.7691V29.1729H77.0125V33.8895Z" fill="#EA5949"/>
<path d="M62.7817 48.1398H67.5392V29.1924H62.7817V48.1398Z" fill="#EA5949"/>
<path d="M67.5391 29.1926H77.0124V24.4355H67.5391V29.1926Z" fill="#EA5949"/>
<path d="M47.3317 47.7328C47.6568 48.6682 48.5517 49.2376 49.4867 49.2376C49.771 49.2376 50.0557 49.1977 50.2992 49.1161C51.4789 48.6682 52.1291 47.3678 51.682 46.1477C51.3162 45.212 50.4624 44.6025 49.5271 44.6025C49.2427 44.6025 48.9988 44.6841 48.7137 44.7657C47.4944 45.172 46.8846 46.5136 47.3317 47.7328Z" fill="#3E396F"/>
<path d="M46.7215 39.2358C45.5023 39.6825 44.8924 40.9833 45.3395 42.2042C45.6646 43.1791 46.5587 43.7493 47.5349 43.7493C47.7788 43.7493 48.0631 43.7081 48.307 43.6266C49.5271 43.1791 50.1369 41.837 49.6899 40.6178C49.3643 39.6825 48.4702 39.1143 47.5349 39.1143C47.2501 39.1143 46.9658 39.1542 46.7215 39.2358Z" fill="#3E396F"/>
<path d="M43.3473 36.7137C43.7131 37.6491 44.5665 38.2185 45.5426 38.2185C45.7866 38.2185 46.0713 38.1781 46.3152 38.0965C47.5349 37.6491 48.1447 36.3482 47.6976 35.1282C47.3725 34.1937 46.5184 33.583 45.5426 33.583C45.2579 33.583 45.0136 33.6646 44.7293 33.7462C43.5504 34.1525 42.8994 35.4945 43.3473 36.7137Z" fill="#3E396F"/>
<path d="M41.3544 31.1856C41.7203 32.1214 42.5745 32.7308 43.5094 32.7308C43.7942 32.7308 44.0381 32.6496 44.3224 32.568C45.5425 32.1613 46.1523 30.8193 45.7456 29.5997C45.3801 28.6647 44.4852 28.0957 43.5502 28.0957C43.2659 28.0957 42.9808 28.1361 42.7373 28.2173C41.558 28.6647 40.9074 29.9656 41.3544 31.1856Z" fill="#3E396F"/>
<path d="M52.78 52.8967H58.7164V24.4355H52.78V52.8967Z" fill="#E7AE0D"/>
<path d="M34.28 52.8967H40.2164V24.4355H34.28V52.8967Z" fill="#E7AE0D"/>
<path d="M10.5764 52.897H30.2141V44.3994H10.5764V52.897Z" fill="#EA5949"/>
<path d="M10.5764 42.9359H30.2141V34.3975H10.5764V42.9359Z" fill="#EA5949"/>
<path d="M10.5764 32.9331H30.2141V24.4355H10.5764V32.9331Z" fill="#EA5949"/>
<path d="M17.258 111.9H17.9845L20.2944 120.985L22.5273 111.9H23.7032L20.8329 122.468H19.7558L17.6643 114.14L15.4842 122.468H14.4071L11.5364 111.9H12.7148L14.9456 120.985L17.258 111.9ZM26.494 122.468H25.4474V111.9H26.494V122.468ZM31.6619 112.329H32.7089V122.468H31.6619V112.329ZM28.457 111.9H35.9142V112.875H28.457V111.9ZM43.8085 111.9H44.8555V122.468H43.8085V111.9ZM37.3683 111.9H38.4153V122.468H37.3683V111.9ZM38.0753 116.74H44.3767V117.752H38.0753V116.74ZM55.0298 122.578C54.2015 122.578 53.5143 122.434 52.9658 122.149C52.4174 121.863 52.0082 121.434 51.733 120.866C51.4602 120.295 51.3238 119.581 51.3238 118.717V111.9H52.3708V118.769C52.3708 119.695 52.5913 120.39 53.0305 120.851C53.4718 121.315 54.1393 121.546 55.0298 121.546C55.921 121.546 56.5906 121.315 57.0368 120.851C57.4814 120.39 57.7043 119.695 57.7043 118.769V111.9H58.7513V118.717C58.7513 119.581 58.6149 120.295 58.3397 120.866C58.0665 121.434 57.652 121.863 57.1015 122.149C56.5481 122.434 55.8588 122.578 55.0298 122.578ZM64.1075 122.578C63.599 122.578 63.1157 122.528 62.6612 122.431C62.2051 122.335 61.7807 122.191 61.3839 121.997C60.9892 121.801 60.6195 121.561 60.2771 121.27L60.9096 120.441C61.3493 120.829 61.838 121.119 62.3691 121.313C62.9019 121.506 63.4828 121.603 64.1075 121.603C65.0132 121.603 65.7157 121.424 66.2114 121.067C66.7079 120.707 66.956 120.204 66.956 119.554V119.546C66.956 119.144 66.8493 118.822 66.6333 118.581C66.4174 118.338 66.1372 118.157 65.7973 118.035C65.4549 117.914 65.0161 117.802 64.4775 117.7C64.4627 117.695 64.4474 117.693 64.4305 117.69C64.4128 117.688 64.3959 117.683 64.3757 117.678L64.1648 117.636C63.4231 117.494 62.8302 117.348 62.3835 117.194C61.9393 117.043 61.5598 116.785 61.2475 116.418C60.9348 116.053 60.7782 115.544 60.7782 114.894V114.887C60.7782 114.234 60.9249 113.676 61.2174 113.212C61.5104 112.751 61.9393 112.396 62.5005 112.156C63.0638 111.913 63.7379 111.791 64.5294 111.791C64.9019 111.791 65.2715 111.833 65.6362 111.915C66.0029 111.997 66.363 112.121 66.7199 112.282C67.0751 112.443 67.4294 112.649 67.7772 112.897L67.1595 113.718C66.7054 113.398 66.2588 113.16 65.8224 113.001C65.3857 112.845 64.9543 112.766 64.5294 112.766C63.6666 112.766 62.9962 112.947 62.5228 113.311C62.0485 113.674 61.8108 114.185 61.8108 114.844V114.852C61.8108 115.249 61.9299 115.561 62.1651 115.793C62.4033 116.023 62.6987 116.194 63.0485 116.306C63.4008 116.418 63.8821 116.532 64.4924 116.653C64.5121 116.658 64.5323 116.663 64.5546 116.668C64.5768 116.673 64.5991 116.678 64.6242 116.683C64.6514 116.688 64.6811 116.693 64.7058 116.701C64.733 116.708 64.7606 116.715 64.7899 116.72C65.4549 116.854 66.0062 117.011 66.4471 117.184C66.8892 117.358 67.2563 117.631 67.5489 118.003C67.8415 118.373 67.9877 118.874 67.9877 119.504V119.516C67.9877 120.161 67.8369 120.712 67.5316 121.171C67.2242 121.63 66.7821 121.977 66.2044 122.218C65.6238 122.458 64.9266 122.578 64.1075 122.578ZM77.0507 118.174V122.468H76.0036V118.174L72.5651 111.9H73.7065L76.5274 117.176L79.3474 111.9H80.4875L77.0507 118.174ZM84.9306 122.578C84.144 122.578 83.4744 122.424 82.9211 122.119C82.3648 121.814 81.9408 121.372 81.6503 120.789C81.3598 120.208 81.2156 119.507 81.2156 118.683V115.688C81.2156 114.864 81.3598 114.16 81.6503 113.579C81.9408 112.999 82.3648 112.555 82.9211 112.25C83.4744 111.945 84.144 111.791 84.9306 111.791C85.7143 111.791 86.3839 111.945 86.9401 112.25C87.4935 112.555 87.9175 112.999 88.2072 113.579C88.4985 114.16 88.6443 114.864 88.6443 115.688V118.683C88.6443 119.507 88.4985 120.208 88.2072 120.789C87.9175 121.372 87.4935 121.814 86.9401 122.119C86.3839 122.424 85.7143 122.578 84.9306 122.578ZM84.9306 121.603C85.4906 121.603 85.9727 121.491 86.3715 121.266C86.7708 121.039 87.0769 120.712 87.2846 120.285C87.4935 119.856 87.5974 119.338 87.5974 118.732V115.636C87.5974 115.031 87.4935 114.513 87.2846 114.086C87.0769 113.656 86.7708 113.328 86.3715 113.103C85.9727 112.877 85.4906 112.766 84.9306 112.766C84.3669 112.766 83.8857 112.877 83.4864 113.103C83.0867 113.328 82.7814 113.656 82.5733 114.086C82.3648 114.513 82.261 115.031 82.261 115.636V118.732C82.261 119.338 82.3648 119.856 82.5733 120.285C82.7814 120.712 83.0867 121.039 83.4864 121.266C83.8857 121.491 84.3669 121.603 84.9306 121.603ZM94.3133 122.578C93.4846 122.578 92.7973 122.434 92.2485 122.149C91.7009 121.863 91.2917 121.434 91.0165 120.866C90.7429 120.295 90.6069 119.581 90.6069 118.717V111.9H91.6531V118.769C91.6531 119.695 91.874 120.39 92.3132 120.851C92.7553 121.315 93.4228 121.546 94.3133 121.546C95.2037 121.546 95.8733 121.315 96.3199 120.851C96.7637 120.39 96.9878 119.695 96.9878 118.769V111.9H98.0349V118.717C98.0349 119.581 97.898 120.295 97.6224 120.866C97.3492 121.434 96.9355 121.863 96.385 122.149C95.8312 122.434 95.1411 122.578 94.3133 122.578ZM101.007 117.025H104.611C105.003 117.025 105.351 116.939 105.649 116.767C105.947 116.594 106.177 116.351 106.339 116.035C106.499 115.72 106.584 115.359 106.589 114.946C106.589 114.535 106.506 114.17 106.345 113.855C106.184 113.54 105.954 113.296 105.656 113.125C105.358 112.954 105.008 112.867 104.611 112.867H101.007V111.892H104.554C105.164 111.892 105.7 112.019 106.164 112.272C106.626 112.522 106.986 112.88 107.239 113.344C107.494 113.805 107.621 114.341 107.621 114.946C107.621 115.552 107.494 116.085 107.239 116.549C106.986 117.011 106.626 117.368 106.159 117.621C105.696 117.871 105.16 117.998 104.554 117.998H101.007V117.025ZM100.359 111.892H101.406V122.468H100.359V111.892ZM104.393 117.67L105.36 117.338L108.065 122.468H106.814L104.393 117.67ZM115.063 121.494H117.455C118.433 121.494 119.165 121.266 119.654 120.809C120.139 120.35 120.383 119.66 120.383 118.74V115.628C120.383 114.708 120.139 114.019 119.654 113.562C119.165 113.103 118.433 112.875 117.455 112.875H115.063V111.9H117.41C118.306 111.9 119.052 112.039 119.648 112.319C120.246 112.597 120.69 113.016 120.985 113.579C121.283 114.143 121.43 114.844 121.43 115.688V118.683C121.43 119.524 121.281 120.226 120.983 120.786C120.686 121.345 120.239 121.767 119.64 122.047C119.045 122.327 118.299 122.468 117.403 122.468H115.063V121.494ZM114.058 111.9H115.105V122.468H114.058V111.9ZM124.329 117.025H127.934C128.327 117.025 128.674 116.939 128.971 116.767C129.269 116.594 129.5 116.351 129.661 116.035C129.822 115.72 129.906 115.359 129.912 114.946C129.912 114.535 129.83 114.17 129.669 113.855C129.508 113.54 129.277 113.296 128.979 113.125C128.681 112.954 128.331 112.867 127.934 112.867H124.329V111.892H127.877C128.488 111.892 129.023 112.019 129.488 112.272C129.949 112.522 130.309 112.88 130.562 113.344C130.818 113.805 130.944 114.341 130.944 114.946C130.944 115.552 130.818 116.085 130.562 116.549C130.309 117.011 129.949 117.368 129.483 117.621C129.019 117.871 128.483 117.998 127.877 117.998H124.329V117.025ZM123.682 111.892H124.729V122.468H123.682V111.892ZM127.716 117.67L128.684 117.338L131.388 122.468H130.138L127.716 117.67ZM133.385 111.9H134.432V122.468H133.385V111.9ZM134.104 121.494H140.175V122.468H134.104V121.494ZM134.104 116.733H139.374V117.708H134.104V116.733ZM134.104 111.9H140.175V112.875H134.104V111.9ZM145.162 111.9H146.425L150.323 122.468H149.159L145.793 112.999L142.428 122.468H141.265L145.162 111.9ZM143.061 118.928H148.621V119.903H143.061V118.928ZM159.807 111.9H160.904V122.468H159.86V113.391L159.968 113.855L156.783 121H156.043L152.858 114.001L152.967 113.391V122.468H151.921V111.9H153.019L156.413 119.531L159.807 111.9ZM166.699 122.578C166.19 122.578 165.707 122.528 165.253 122.431C164.796 122.335 164.372 122.191 163.975 121.997C163.581 121.801 163.211 121.561 162.868 121.27L163.501 120.441C163.94 120.829 164.429 121.119 164.96 121.313C165.493 121.506 166.073 121.603 166.699 121.603C167.604 121.603 168.307 121.424 168.803 121.067C169.3 120.707 169.547 120.204 169.547 119.554V119.546C169.547 119.144 169.441 118.822 169.225 118.581C169.009 118.338 168.729 118.157 168.388 118.035C168.047 117.914 167.607 117.802 167.069 117.7C167.054 117.695 167.039 117.693 167.021 117.69C167.004 117.688 166.986 117.683 166.967 117.678L166.756 117.636C166.014 117.494 165.421 117.348 164.975 117.194C164.531 117.043 164.151 116.785 163.838 116.418C163.526 116.053 163.369 115.544 163.369 114.894V114.887C163.369 114.234 163.516 113.676 163.809 113.212C164.101 112.751 164.531 112.396 165.091 112.156C165.655 111.913 166.329 111.791 167.12 111.791C167.493 111.791 167.862 111.833 168.227 111.915C168.594 111.997 168.954 112.121 169.312 112.282C169.666 112.443 170.022 112.649 170.369 112.897L169.751 113.718C169.297 113.398 168.85 113.16 168.414 113.001C167.977 112.845 167.545 112.766 167.12 112.766C166.257 112.766 165.588 112.947 165.114 113.311C164.64 113.674 164.402 114.185 164.402 114.844V114.852C164.402 115.249 164.521 115.561 164.757 115.793C164.995 116.023 165.29 116.194 165.64 116.306C165.992 116.418 166.473 116.532 167.083 116.653C167.103 116.658 167.123 116.663 167.146 116.668C167.168 116.673 167.19 116.678 167.215 116.683C167.242 116.688 167.272 116.693 167.297 116.701C167.325 116.708 167.352 116.715 167.382 116.72C168.047 116.854 168.597 117.011 169.038 117.184C169.48 117.358 169.847 117.631 170.141 118.003C170.432 118.373 170.579 118.874 170.579 119.504V119.516C170.579 120.161 170.428 120.712 170.123 121.171C169.815 121.63 169.373 121.977 168.796 122.218C168.215 122.458 167.518 122.578 166.699 122.578ZM56.9911 140.443C56.2589 140.443 55.6161 140.281 55.0607 139.956C54.5052 139.632 54.0759 139.17 53.7705 138.575C53.4652 137.979 53.314 137.287 53.314 136.503V133.603C53.314 132.819 53.4652 132.127 53.7705 131.532C54.0759 130.936 54.5052 130.474 55.0607 130.147C55.6161 129.82 56.2589 129.656 56.9911 129.656C57.596 129.656 58.1539 129.78 58.6632 130.028C59.1716 130.274 59.596 130.623 59.9384 131.078C60.2804 131.532 60.5112 132.055 60.6331 132.65H59.5857C59.4691 132.253 59.2783 131.904 59.015 131.598C58.7501 131.291 58.4423 131.055 58.0875 130.884C57.7352 130.715 57.3681 130.631 56.9911 130.631C56.4674 130.631 56.0059 130.755 55.6091 131.001C55.2123 131.249 54.9041 131.596 54.6861 132.045C54.4677 132.491 54.3581 133.012 54.3581 133.603V136.503C54.3581 137.093 54.4677 137.615 54.6861 138.061C54.9041 138.51 55.2123 138.858 55.6091 139.101C56.0059 139.346 56.4674 139.468 56.9911 139.468C57.3681 139.468 57.7352 139.389 58.0875 139.229C58.4423 139.068 58.7501 138.835 59.015 138.53C59.2783 138.224 59.4691 137.865 59.5857 137.449H60.6331C60.5112 138.044 60.278 138.57 59.9331 139.021C59.5907 139.475 59.1642 139.825 58.6553 140.073C58.1465 140.319 57.591 140.443 56.9911 140.443ZM65.9473 140.443C65.1603 140.443 64.4907 140.289 63.9373 139.984C63.3819 139.679 62.9575 139.237 62.667 138.654C62.3769 138.073 62.2327 137.371 62.2327 136.547V133.553C62.2327 132.729 62.3769 132.025 62.667 131.445C62.9575 130.864 63.3819 130.42 63.9373 130.115C64.4907 129.809 65.1603 129.656 65.9473 129.656C66.731 129.656 67.401 129.809 67.9568 130.115C68.5098 130.42 68.9342 130.864 69.2243 131.445C69.5148 132.025 69.661 132.729 69.661 133.553V136.547C69.661 137.371 69.5148 138.073 69.2243 138.654C68.9342 139.237 68.5098 139.679 67.9568 139.984C67.401 140.289 66.731 140.443 65.9473 140.443ZM65.9473 139.468C66.5073 139.468 66.9893 139.356 67.3886 139.131C67.7875 138.905 68.0932 138.578 68.3013 138.151C68.5098 137.721 68.614 137.203 68.614 136.597V133.501C68.614 132.896 68.5098 132.377 68.3013 131.95C68.0932 131.521 67.7875 131.194 67.3886 130.968C66.9893 130.742 66.5073 130.631 65.9473 130.631C65.384 130.631 64.9023 130.742 64.5035 130.968C64.1038 131.194 63.7985 131.521 63.59 131.95C63.3819 132.377 63.2776 132.896 63.2776 133.501V136.597C63.2776 137.203 63.3819 137.721 63.59 138.151C63.7985 138.578 64.1038 138.905 64.5035 139.131C64.9023 139.356 65.384 139.468 65.9473 139.468ZM79.7982 129.765H80.8946V140.334H79.8505V131.256L79.9601 131.72L76.7746 138.865H76.0346L72.849 131.866L72.9582 131.256V140.334H71.9112V129.765H73.0106L76.4042 137.396L79.7982 129.765ZM83.5119 129.765H84.5585V140.334H83.5119V129.765ZM84.2318 139.358H90.3028V140.334H84.2318V139.358ZM84.2318 134.598H89.501V135.573H84.2318V134.598ZM84.2318 129.765H90.3028V130.74H84.2318V129.765ZM98.1572 130.194H99.2042V140.334H98.1572V130.194ZM94.9519 129.765H102.41V130.74H94.9519V129.765ZM104.511 134.891H108.116C108.507 134.891 108.855 134.804 109.153 134.633C109.451 134.458 109.681 134.216 109.843 133.901C110.004 133.586 110.088 133.224 110.093 132.811C110.093 132.399 110.011 132.035 109.85 131.72C109.688 131.405 109.458 131.162 109.16 130.991C108.863 130.819 108.512 130.732 108.116 130.732H104.511V129.758H108.059C108.67 129.758 109.205 129.884 109.669 130.137C110.13 130.388 110.49 130.745 110.743 131.209C110.998 131.67 111.125 132.206 111.125 132.811C111.125 133.417 110.998 133.95 110.743 134.414C110.49 134.876 110.13 135.233 109.664 135.486C109.2 135.737 108.664 135.863 108.059 135.863H104.511V134.891ZM103.864 129.758H104.911V140.334H103.864V129.758ZM107.897 135.535L108.865 135.203L111.569 140.334H110.319L107.897 135.535ZM116.839 140.443C116.01 140.443 115.323 140.299 114.775 140.014C114.226 139.728 113.817 139.3 113.542 138.731C113.269 138.161 113.133 137.446 113.133 136.583V129.765H114.18V136.635C114.18 137.56 114.4 138.255 114.84 138.716C115.281 139.18 115.948 139.411 116.839 139.411C117.729 139.411 118.399 139.18 118.846 138.716C119.291 138.255 119.513 137.56 119.513 136.635V129.765H120.56V136.583C120.56 137.446 120.423 138.161 120.148 138.731C119.875 139.3 119.461 139.728 118.91 140.014C118.356 140.299 117.668 140.443 116.839 140.443ZM122.885 129.765H123.932V140.334H122.885V129.765ZM123.604 139.358H129.675V140.334H123.604V139.358ZM123.604 134.598H128.874V135.573H123.604V134.598ZM123.604 129.765H129.675V130.74H123.604V129.765Z" fill="#3E396F"/>
</svg>
