<svg width="56" height="54" viewBox="0 0 56 54" fill="none" xmlns="http://www.w3.org/2000/svg">
<path d="M39.4204 31.2849C39.4204 34.116 37.0325 36.4106 34.0888 36.4106H23.8482C20.9049 36.4106 18.5195 34.116 18.5195 31.2849V21.432C18.5195 18.6032 20.9049 16.3059 23.8482 16.3059H34.0888C37.0325 16.3059 39.4204 18.6032 39.4204 21.432V31.2849ZM41.8502 21.432C41.8502 17.309 38.375 13.9687 34.0888 13.9687H23.8482C19.5616 13.9687 16.0889 17.309 16.0889 21.432V31.2849C16.0889 35.4074 19.5616 38.7482 23.8482 38.7482H34.0888C38.375 38.7482 41.8502 35.4074 41.8502 31.2849V21.432ZM29.0133 30.4395C26.7659 30.4395 24.938 28.6792 24.938 26.5195C24.938 24.3557 26.7659 22.5994 29.0133 22.5994C31.2602 22.5994 33.0907 24.3557 33.0907 26.5195C33.0907 28.6792 31.2602 30.4395 29.0133 30.4395ZM29.0133 20.3994C25.505 20.3994 22.6534 23.1449 22.6534 26.5195C22.6534 29.892 25.505 32.6375 29.0133 32.6375C32.5211 32.6375 35.3756 29.892 35.3756 26.5195C35.3756 23.1449 32.5211 20.3994 29.0133 20.3994ZM35.7456 18.5308C34.9094 18.5308 34.2315 19.1845 34.2315 19.9892C34.2315 20.7915 34.9094 21.4433 35.7456 21.4433C36.5826 21.4433 37.2622 20.7915 37.2622 19.9892C37.2622 19.1845 36.5826 18.5308 35.7456 18.5308ZM28.8442 46.2075C17.5607 46.2075 8.37939 37.3755 8.37939 26.5174C8.37939 15.6634 17.5607 6.83179 28.8442 6.83179C40.1306 6.83179 49.314 15.6634 49.314 26.5174C49.314 37.3755 40.1306 46.2075 28.8442 46.2075Z" fill="#3E396F"/>
<path d="M28.8442 46.2075C17.5607 46.2075 8.37939 37.3754 8.37939 26.5174C8.37939 15.8103 17.3147 7.07083 28.3901 6.83655C29.3598 9.18706 30.288 11.5718 31.1622 13.9686H23.8482C19.5616 13.9686 16.0889 17.309 16.0889 21.4319V31.2848C16.0889 35.4074 19.5616 38.7481 23.8482 38.7481H34.0888C35.5305 38.7481 36.8776 38.3718 38.0327 37.7136C38.4478 39.6318 38.8345 41.566 39.1906 43.5019C36.1515 45.2204 32.6148 46.2075 28.8442 46.2075ZM34.0888 36.4105H23.8482C20.9049 36.4105 18.5195 34.116 18.5195 31.2848V21.4319C18.5195 18.6032 20.9049 16.3058 23.8482 16.3058H31.9963C32.7621 18.4989 33.487 20.7105 34.1712 22.9399C33.0132 21.4005 31.1342 20.3994 29.0133 20.3994C25.505 20.3994 22.6534 23.1448 22.6534 26.5194C22.6534 29.892 25.505 32.6374 29.0133 32.6374C32.3616 32.6374 35.1153 30.1371 35.3589 26.9751C36.1277 29.7048 36.8358 32.4639 37.4773 35.2431C36.5566 35.9738 35.3777 36.4105 34.0888 36.4105ZM29.0133 30.4394C26.7659 30.4394 24.938 28.6791 24.938 26.5194C24.938 24.3557 26.7659 22.5993 29.0133 22.5993C31.2602 22.5993 33.0907 24.3557 33.0907 26.5194C33.0907 28.6791 31.2602 30.4394 29.0133 30.4394Z" fill="#3A386B"/>
</svg>
