<svg width="55" height="56" viewBox="0 0 55 56" fill="none" xmlns="http://www.w3.org/2000/svg">
<path d="M38.213 32.3138C38.213 35.2117 35.8619 37.5604 32.9635 37.5604H22.8808C19.9829 37.5604 17.6342 35.2117 17.6342 32.3138V22.2286C17.6342 19.3332 19.9829 16.9817 22.8808 16.9817H32.9635C35.8619 16.9817 38.213 19.3332 38.213 22.2286V32.3138ZM40.6053 22.2286C40.6053 18.0085 37.1837 14.5893 32.9635 14.5893H22.8808C18.6602 14.5893 15.2411 18.0085 15.2411 22.2286V32.3138C15.2411 36.5336 18.6602 39.9531 22.8808 39.9531H32.9635C37.1837 39.9531 40.6053 36.5336 40.6053 32.3138V22.2286ZM27.9663 31.4485C25.7536 31.4485 23.9538 29.6467 23.9538 27.436C23.9538 25.2213 25.7536 23.4236 27.9663 23.4236C30.1785 23.4236 31.9808 25.2213 31.9808 27.436C31.9808 29.6467 30.1785 31.4485 27.9663 31.4485ZM27.9663 21.1717C24.5121 21.1717 21.7044 23.9819 21.7044 27.436C21.7044 30.8882 24.5121 33.6983 27.9663 33.6983C31.42 33.6983 34.2306 30.8882 34.2306 27.436C34.2306 23.9819 31.42 21.1717 27.9663 21.1717ZM34.5948 19.259C33.7715 19.259 33.104 19.9282 33.104 20.7519C33.104 21.5731 33.7715 22.2402 34.5948 22.2402C35.4189 22.2402 36.0881 21.5731 36.0881 20.7519C36.0881 19.9282 35.4189 19.259 34.5948 19.259ZM27.7998 47.5883C16.6902 47.5883 7.65039 38.5481 7.65039 27.434C7.65039 16.324 16.6902 7.28418 27.7998 7.28418C38.9122 7.28418 47.9541 16.324 47.9541 27.434C47.9541 38.5481 38.9122 47.5883 27.7998 47.5883Z" fill="#3E396F"/>
<path d="M27.7998 47.5883C16.6902 47.5883 7.65039 38.548 7.65039 27.4339C7.65039 16.4744 16.448 7.52887 27.3527 7.28906C28.3074 9.69499 29.2213 12.1359 30.0821 14.5893H22.8808C18.6602 14.5893 15.2411 18.0084 15.2411 22.2286V32.3138C15.2411 36.5335 18.6602 39.9531 22.8808 39.9531H32.9635C34.383 39.9531 35.7094 39.5678 36.8466 38.8941C37.2554 40.8575 37.6361 42.8374 37.9868 44.8189C34.9945 46.5779 31.5123 47.5883 27.7998 47.5883ZM32.9635 37.5603H22.8808C19.9829 37.5603 17.6342 35.2117 17.6342 32.3138V22.2286C17.6342 19.3331 19.9829 16.9816 22.8808 16.9816H30.9033C31.6573 19.2264 32.371 21.4902 33.0447 23.7721C31.9046 22.1964 30.0545 21.1717 27.9662 21.1717C24.5121 21.1717 21.7044 23.9818 21.7044 27.436C21.7044 30.8881 24.5121 33.6982 27.9662 33.6982C31.263 33.6982 33.9743 31.139 34.2141 27.9024C34.971 30.6965 35.6682 33.5207 36.2999 36.3654C35.3934 37.1133 34.2326 37.5603 32.9635 37.5603ZM27.9662 31.4485C25.7536 31.4485 23.9538 29.6466 23.9538 27.436C23.9538 25.2212 25.7536 23.4235 27.9662 23.4235C30.1785 23.4235 31.9808 25.2212 31.9808 27.436C31.9808 29.6466 30.1785 31.4485 27.9662 31.4485Z" fill="#3A386B"/>
</svg>
