<svg width="31" height="41" viewBox="0 0 31 41" fill="none" xmlns="http://www.w3.org/2000/svg">
<path d="M20.8 40.588C9.69042 40.588 0.650574 31.5478 0.650574 20.4337C0.650574 9.47412 9.44814 0.528628 20.3529 0.288818C21.3076 2.69475 22.2215 5.1357 23.0823 7.58901H15.881C11.6604 7.58901 8.24126 11.0082 8.24126 15.2283V25.3135C8.24126 29.5333 11.6604 32.9528 15.881 32.9528H25.9637C27.3832 32.9528 28.7096 32.5676 29.8468 31.8939C30.2556 33.8573 30.6363 35.8372 30.9869 37.8187C27.9947 39.5777 24.5125 40.588 20.8 40.588ZM25.9637 30.5601H15.881C12.9831 30.5601 10.6344 28.2114 10.6344 25.3135V15.2283C10.6344 12.3329 12.9831 9.98135 15.881 9.98135H23.9035C24.6575 12.2262 25.3712 14.4899 26.0449 16.7718C24.9048 15.1962 23.0547 14.1714 20.9664 14.1714C17.5123 14.1714 14.7046 16.9816 14.7046 20.4357C14.7046 23.8879 17.5123 26.698 20.9664 26.698C24.2632 26.698 26.9745 24.1388 27.2143 20.9022C27.9712 23.6963 28.6684 26.5204 29.3 29.3652C28.3935 30.113 27.2328 30.5601 25.9637 30.5601ZM20.9664 24.4482C18.7538 24.4482 16.9539 22.6464 16.9539 20.4357C16.9539 18.221 18.7538 16.4233 20.9664 16.4233C23.1787 16.4233 24.981 18.221 24.981 20.4357C24.981 22.6464 23.1787 24.4482 20.9664 24.4482Z" fill="#3A386B"/>
</svg>
