<svg width="42" height="41" viewBox="0 0 42 41" fill="none" xmlns="http://www.w3.org/2000/svg">
<path d="M20.8525 40.2041C9.56905 40.2041 0.387695 31.3721 0.387695 20.514C0.387695 9.65998 9.56905 0.828369 20.8525 0.828369C32.1389 0.828369 41.3223 9.65998 41.3223 20.514C41.3223 31.3721 32.1389 40.2041 20.8525 40.2041Z" fill="#3E396F"/>
<path fill-rule="evenodd" clip-rule="evenodd" d="M23.3741 13.649C28.3153 11.9059 33.9788 8.19959 32.8924 13.6099C32.2123 16.995 30.2128 25.267 30.0127 26.4594C29.8127 27.6518 28.9728 32.1922 25.2934 29.3063C21.614 26.4204 21.9739 26.9594 21.9739 26.9594C20.2689 28.4657 17.8885 32.106 16.4949 28.0366C15.375 24.7667 14.5749 22.4967 14.5749 22.4967C14.5749 22.4967 12.0953 21.8425 11.3755 21.6119C10.6557 21.3812 6.91685 19.9578 9.69565 18.8419C12.2296 17.8238 22.1069 14.0962 23.3741 13.649Z" fill="#FEFEFE"/>
<path fill-rule="evenodd" clip-rule="evenodd" d="M24.6484 17.259C24.4994 17.0336 22.5124 18.2107 20.4362 19.4054C18.1303 20.7327 15.7244 22.1392 15.8679 22.8082C15.9521 23.2003 17.2486 27.0097 17.436 26.5081C17.6637 25.899 17.7704 24.3834 17.7704 23.5457C17.7704 23.5457 19.0246 22.3594 20.5693 21.1199C22.114 19.8804 24.8233 17.5432 24.6484 17.259Z" fill="#3E396F"/>
<path fill-rule="evenodd" clip-rule="evenodd" d="M18.9877 25.0311C19.818 25.4723 20.2248 25.7984 20.6308 26.0467C21.0647 26.3128 21.2472 26.2685 20.2708 27.1807C19.8482 27.5756 18.1775 29.5244 18.4044 27.7073C18.5174 26.8035 18.627 25.7199 18.7224 25.2159C18.7802 24.9131 18.75 24.9043 18.9877 25.0311Z" fill="#3E396F"/>
</svg>
