<svg width="119" height="81" viewBox="0 0 119 81" fill="none" xmlns="http://www.w3.org/2000/svg">
<path d="M92.7265 58.3764C92.3816 57.9271 92.244 57.3749 92.3816 56.8561L96.4497 38.8601C96.7254 37.6167 97.7934 36.7534 99.0694 36.7534C100.345 36.7534 101.413 37.6167 101.688 38.8601L104.481 51.0875H105.377L108.169 38.8601C108.445 37.6167 109.514 36.7534 110.79 36.7534C112.03 36.7534 113.133 37.6167 113.408 38.8601L117.477 56.8561C117.615 57.3749 117.477 57.9271 117.132 58.3764C116.787 58.8254 116.27 59.0678 115.719 59.0678C114.857 59.0678 114.133 58.4798 113.961 57.6512L111.237 45.6993H110.341L107.825 56.7529C107.514 58.1 106.308 59.0678 104.929 59.0678C103.55 59.0678 102.344 58.1 102.034 56.7529L99.5172 45.6993H98.6208L95.8981 57.6512C95.7252 58.4798 95.0013 59.0678 94.1401 59.0678C93.5885 59.0678 93.0708 58.7906 92.7265 58.3764Z" fill="#664996"/>
<path d="M94.14 60C95.4152 60 96.5182 59.1017 96.8284 57.8583L99.0694 47.9101L101.137 56.9606C101.517 58.7566 103.102 60 104.929 60C106.756 60 108.307 58.7566 108.721 56.9606L110.789 47.9101L113.03 57.8583C113.341 59.1017 114.443 60 115.719 60C116.545 60 117.339 59.6199 117.855 58.9638C118.408 58.3079 118.58 57.444 118.408 56.6144L114.305 38.6534C113.926 36.9947 112.478 35.8203 110.789 35.8203C109.066 35.8203 107.618 36.9947 107.239 38.6534L104.929 48.8774L102.619 38.6534C102.24 36.9947 100.793 35.8203 99.0694 35.8203C97.3799 35.8203 95.9324 36.9947 95.5529 38.6534L91.4512 56.6144C91.2784 57.444 91.4512 58.3079 91.9676 58.9638C92.5192 59.6199 93.2775 60 94.14 60Z" fill="#3E396F"/>
<path d="M68.9064 49.9138L65.9767 60.0002H87.9348L84.9701 49.9138H68.9064Z" fill="#3E396F"/>
<path d="M70.0101 46.1483H83.9014L80.9029 35.8203H73.0089L70.0101 46.1483Z" fill="#3E396F"/>
<path d="M45.8801 60.0003H62.5298V52.781H45.8801V60.0003Z" fill="#E7AE0D"/>
<path d="M45.8801 51.537H62.5298V44.2832H45.8801V51.537Z" fill="#E7AE0D"/>
<path d="M45.8801 43.0396H62.5298V35.8203H45.8801V43.0396Z" fill="#E7AE0D"/>
<path d="M39.4686 47.3237H41.9164V35.8208H39.4686V47.3237Z" fill="#3E396F"/>
<path d="M38.4689 47.8409V35.8203H36.0212V47.9101H36.0559L39.9511 60H42.433L38.4689 47.8409Z" fill="#3E396F"/>
<path d="M32.5746 47.9101H32.609L36.504 60H38.9864L35.0218 47.8409V35.8203H32.5746V47.9101Z" fill="#3E396F"/>
<path d="M29.1275 60H31.575V35.8203H29.1275V60Z" fill="#3E396F"/>
<path d="M25.6804 60H28.1275V35.8203H25.6804V60Z" fill="#3E396F"/>
<path d="M22.2332 47.9788H17.0281C17.0281 51.7441 13.9944 54.7838 10.2373 54.7838V59.9999C16.8558 59.9999 22.2332 54.6111 22.2332 47.9788Z" fill="#3E396F"/>
<path d="M10.2373 35.8203V41.0361C13.9944 41.0361 17.0281 44.0756 17.0281 47.8409H22.2332C22.2332 41.2088 16.8558 35.8203 10.2373 35.8203Z" fill="#3E396F"/>
<path d="M4.92841 60H9.85773V35.8203H4.92841V60Z" fill="#3E396F"/>
<path d="M106.126 22.7724C107.125 22.7724 107.915 21.9815 107.915 20.9792C107.915 20.0031 107.125 19.1855 106.126 19.1855C105.152 19.1855 104.336 20.0031 104.336 20.9792C104.336 21.9815 105.152 22.7724 106.126 22.7724Z" fill="#3E396F"/>
<path d="M108.678 30.342H114.389V11.8806H108.678V30.342Z" fill="#EA5949"/>
<path d="M97.8612 30.342H103.573V11.8806H97.8612V30.342Z" fill="#EA5949"/>
<path d="M95.2294 24.1706C95.2553 22.509 94.5978 20.9265 93.4394 19.7398C92.703 19.001 91.8343 18.474 90.8869 18.1835C92.4659 18.0255 93.6763 16.68 93.6763 15.0449C93.6763 13.3044 92.2816 11.8806 90.5444 11.8806H80.9381C77.5429 11.8806 74.7266 14.7284 74.7794 18.1313C74.8056 20.9265 76.7537 23.3001 79.3588 24.0121H78.3327C76.5955 24.0121 75.1739 25.4367 75.1739 27.1772C75.1739 28.9174 76.5955 30.342 78.3327 30.342H88.9654C92.4131 30.342 95.2294 27.5728 95.2294 24.1706ZM90.5444 16.4694H80.9642C80.1222 16.4694 79.4116 17.1291 79.3588 17.9726C79.3588 18.8693 80.0171 19.6345 80.9381 19.6345H89.0441C91.5185 19.6345 93.5184 21.6652 93.5184 24.1439C93.4922 26.5967 91.4657 28.601 88.9654 28.601H78.3327C77.5691 28.601 76.9113 27.9681 76.9113 27.1772C76.9113 26.3853 77.5691 25.7532 78.3327 25.7532H89.0179C89.8866 25.7532 90.5972 25.0673 90.6497 24.1968C90.6759 23.7748 90.5183 23.3263 90.2019 23.0099C89.9128 22.6934 89.4655 22.509 89.0441 22.509H81.0173C78.5432 22.509 76.5427 20.5312 76.5166 18.1046C76.4907 16.9176 76.9642 15.7836 77.8059 14.9398C78.6485 14.0696 79.7541 13.6214 80.9381 13.6214H90.5444C91.3075 13.6214 91.9658 14.2543 91.9658 15.0449C91.9658 15.8365 91.3075 16.4694 90.5444 16.4694Z" fill="#EA5949"/>
<path d="M70.2266 30.3417C71.2788 30.3417 72.1473 29.4712 72.1473 28.3895C72.1473 27.3348 71.2788 26.4646 70.2266 26.4646C69.1469 26.4646 68.2782 27.3348 68.2782 28.3895C68.2782 29.4712 69.1469 30.3417 70.2266 30.3417Z" fill="#3E396F"/>
<path d="M70.2266 21.5854C69.1469 21.5854 68.2782 22.456 68.2782 23.5371C68.2782 24.6182 69.1469 25.4887 70.2266 25.4887C71.2788 25.4887 72.1473 24.6182 72.1473 23.5371C72.1473 22.456 71.2788 21.5854 70.2266 21.5854Z" fill="#3E396F"/>
<path d="M70.2266 16.7327C69.1469 16.7327 68.2782 17.6032 68.2782 18.6843C68.2782 19.7654 69.1469 20.6365 70.2266 20.6365C71.2788 20.6365 72.1473 19.7654 72.1473 18.6843C72.1473 17.6032 71.2788 16.7327 70.2266 16.7327Z" fill="#3E396F"/>
<path d="M70.2266 15.7574C71.2788 15.7574 72.1473 14.8872 72.1473 13.832C72.1473 12.7509 71.2788 11.8806 70.2266 11.8806C69.1469 11.8806 68.2782 12.7509 68.2782 13.832C68.2782 14.8872 69.1469 15.7574 70.2266 15.7574Z" fill="#3E396F"/>
<path d="M65.6465 21.1899L59.6721 30.3416H65.6465V21.1899Z" fill="#EA5949"/>
<path d="M53.5662 30.342H59.5406V11.8806H53.5662V30.342Z" fill="#EA5949"/>
<path d="M41.723 30.3418H47.8553V27.2563H41.723V30.3418Z" fill="#EA5949"/>
<path d="M50.9343 21.0977H44.7756V24.1833H47.8552V27.2562H50.9343V21.0977Z" fill="#EA5949"/>
<path d="M47.8552 18.0119H50.9343V14.9524H47.8552V18.0119Z" fill="#EA5949"/>
<path d="M38.6434 27.2559H41.723V14.9656H38.6434V27.2559Z" fill="#EA5949"/>
<path d="M41.723 14.9658H47.8553V11.8801H41.723V14.9658Z" fill="#EA5949"/>
<path d="M28.6424 26.9917C28.8528 27.5984 29.4321 27.9677 30.0373 27.9677C30.2214 27.9677 30.4057 27.9418 30.5633 27.8889C31.3269 27.5984 31.7478 26.7549 31.4584 25.9635C31.2216 25.3565 30.6689 24.9612 30.0635 24.9612C29.8794 24.9612 29.7215 25.0141 29.537 25.067C28.7477 25.3306 28.353 26.2008 28.6424 26.9917Z" fill="#3E396F"/>
<path d="M28.2473 21.4805C27.4581 21.7702 27.0634 22.614 27.3527 23.4059C27.5632 24.0383 28.142 24.4082 28.7739 24.4082C28.9318 24.4082 29.1158 24.3814 29.2737 24.3285C30.0635 24.0383 30.4582 23.1678 30.1688 22.3769C29.9581 21.7702 29.3793 21.4016 28.7739 21.4016C28.5895 21.4016 28.4055 21.4275 28.2473 21.4805Z" fill="#3E396F"/>
<path d="M26.0631 19.8445C26.3 20.4512 26.8523 20.8205 27.4842 20.8205C27.6421 20.8205 27.8264 20.7944 27.9843 20.7414C28.7738 20.4512 29.1686 19.6074 28.8792 18.816C28.6687 18.2098 28.1158 17.8137 27.4842 17.8137C27.2999 17.8137 27.1417 17.8666 26.9577 17.9196C26.1946 18.1831 25.7732 19.0536 26.0631 19.8445Z" fill="#3E396F"/>
<path d="M24.7732 16.2582C25.0101 16.8652 25.563 17.2605 26.1682 17.2605C26.3525 17.2605 26.5104 17.2078 26.6945 17.1549C27.4842 16.8911 27.879 16.0206 27.6157 15.2295C27.3791 14.623 26.7998 14.2539 26.1946 14.2539C26.0106 14.2539 25.826 14.2801 25.6684 14.3328C24.905 14.623 24.4838 15.4668 24.7732 16.2582Z" fill="#3E396F"/>
<path d="M32.1692 30.342H36.0119V11.8806H32.1692V30.342Z" fill="#E7AE0D"/>
<path d="M20.1938 30.342H24.0365V11.8806H20.1938V30.342Z" fill="#E7AE0D"/>
<path d="M4.85004 30.3418H17.5618V24.8298H4.85004V30.3418Z" fill="#EA5949"/>
<path d="M4.85004 23.8797H17.5618V18.3413H4.85004V23.8797Z" fill="#EA5949"/>
<path d="M4.85004 17.3928H17.5618V11.8809H4.85004V17.3928Z" fill="#EA5949"/>
</svg>
