<svg width="55" height="56" viewBox="0 0 55 56" fill="none" xmlns="http://www.w3.org/2000/svg">
<path d="M27.5117 48.1762C16.4022 48.1762 7.3623 39.136 7.3623 28.0219C7.3623 16.9119 16.4022 7.87207 27.5117 7.87207C38.6241 7.87207 47.666 16.9119 47.666 28.0219C47.666 39.136 38.6241 48.1762 27.5117 48.1762Z" fill="#3E396F"/>
<path fill-rule="evenodd" clip-rule="evenodd" d="M29.9949 20.9946C34.8599 19.2105 40.4361 15.4168 39.3664 20.9547C38.6969 24.4195 36.7281 32.8866 36.5311 34.1071C36.3342 35.3276 35.5072 39.975 31.8845 37.0211C28.2618 34.0671 28.6162 34.6189 28.6162 34.6189C26.9375 36.1607 24.5938 39.8869 23.2217 35.7215C22.1191 32.3745 21.3312 30.0509 21.3312 30.0509C21.3312 30.0509 18.8899 29.3814 18.1812 29.1453C17.4724 28.9092 13.7912 27.4522 16.5272 26.31C19.0221 25.2679 28.7472 21.4524 29.9949 20.9946Z" fill="#FEFEFE"/>
<path fill-rule="evenodd" clip-rule="evenodd" d="M31.2498 24.6897C31.1031 24.459 29.1467 25.6638 27.1025 26.8868C24.8322 28.2453 22.4633 29.6849 22.6047 30.3698C22.6875 30.7711 23.964 34.6703 24.1486 34.1569C24.3727 33.5334 24.4778 31.9821 24.4778 31.1246C24.4778 31.1246 25.7127 29.9103 27.2336 28.6417C28.7544 27.373 31.422 24.9806 31.2498 24.6897Z" fill="#3E396F"/>
<path fill-rule="evenodd" clip-rule="evenodd" d="M25.6762 32.6453C26.4937 33.0969 26.8942 33.4307 27.2939 33.6849C27.7212 33.9573 27.9008 33.912 26.9395 34.8457C26.5233 35.2499 24.8785 37.2446 25.1018 35.3846C25.213 34.4596 25.321 33.3503 25.4149 32.8345C25.4718 32.5246 25.4421 32.5155 25.6762 32.6453Z" fill="#3E396F"/>
</svg>
