<svg width="25" height="20" viewBox="0 0 25 20" fill="none" xmlns="http://www.w3.org/2000/svg">
<path fill-rule="evenodd" clip-rule="evenodd" d="M14.9949 2.99462C19.8599 1.21047 25.4361 -2.58323 24.3664 2.95465C23.6969 6.41953 21.7281 14.8866 21.5311 16.1071C21.3342 17.3276 20.5072 21.975 16.8845 19.0211C13.2618 16.0671 13.6162 16.6189 13.6162 16.6189C11.9375 18.1607 9.5938 21.8869 8.22169 17.7215C7.11906 14.3745 6.33123 12.0509 6.33123 12.0509C6.33123 12.0509 3.88987 11.3814 3.18115 11.1453C2.47243 10.9092 -1.20877 9.45218 1.5272 8.30999C4.02213 7.26793 13.7472 3.4524 14.9949 2.99462Z" fill="#FEFEFE"/>
<path fill-rule="evenodd" clip-rule="evenodd" d="M16.2498 6.68973C16.1031 6.45899 14.1467 7.6638 12.1025 8.88675C9.83218 10.2453 7.46333 11.6849 7.60466 12.3698C7.68748 12.7711 8.964 16.6703 9.14859 16.1569C9.37275 15.5334 9.47782 13.9821 9.47782 13.1246C9.47782 13.1246 10.7127 11.9103 12.2336 10.6417C13.7544 9.37297 16.422 6.98064 16.2498 6.68973Z" fill="#3E396F"/>
<path fill-rule="evenodd" clip-rule="evenodd" d="M10.6762 14.6453C11.4937 15.0969 11.8942 15.4307 12.2939 15.6849C12.7212 15.9573 12.9008 15.912 11.9395 16.8457C11.5233 17.2499 9.87847 19.2446 10.1018 17.3846C10.213 16.4596 10.321 15.3503 10.4149 14.8345C10.4718 14.5246 10.4421 14.5155 10.6762 14.6453Z" fill="#3E396F"/>
</svg>
